<?xml version="1.0" encoding="UTF-8" standalone="no"?>
<svg
   xmlns:dc="http://purl.org/dc/elements/1.1/"
   xmlns:cc="http://creativecommons.org/ns#"
   xmlns:rdf="http://www.w3.org/1999/02/22-rdf-syntax-ns#"
   xmlns:svg="http://www.w3.org/2000/svg"
   xmlns="http://www.w3.org/2000/svg"
   xmlns:sodipodi="http://sodipodi.sourceforge.net/DTD/sodipodi-0.dtd"
   xmlns:inkscape="http://www.inkscape.org/namespaces/inkscape"
   viewBox="0 0 452.54294 227.35551"
   height="227.35551"
   width="452.54294"
   xml:space="preserve"
   id="svg2"
   version="1.1"
   sodipodi:docname="vidme-logo.svg"
   inkscape:version="0.92.2 (5c3e80d, 2017-08-06)"><sodipodi:namedview
     pagecolor="#ffffff"
     bordercolor="#666666"
     borderopacity="1"
     objecttolerance="10"
     gridtolerance="10"
     guidetolerance="10"
     inkscape:pageopacity="0"
     inkscape:pageshadow="2"
     inkscape:window-width="1920"
     inkscape:window-height="1017"
     id="namedview14"
     showgrid="false"
     inkscape:zoom="0.56719836"
     inkscape:cx="-76.784179"
     inkscape:cy="23.747251"
     inkscape:window-x="-8"
     inkscape:window-y="-8"
     inkscape:window-maximized="1"
     inkscape:current-layer="g12"
     fit-margin-top="0"
     fit-margin-left="0"
     fit-margin-right="0"
     fit-margin-bottom="0"
     height="200px" /><metadata
     id="metadata8"><rdf:RDF><cc:Work
         rdf:about=""><dc:format>image/svg+xml</dc:format><dc:type
           rdf:resource="http://purl.org/dc/dcmitype/StillImage" /><dc:title></dc:title></cc:Work></rdf:RDF></metadata><defs
     id="defs6" /><g
     transform="matrix(1.3333333,0,0,-1.3333333,-12.669744,248.86342)"
     id="g10"><g
       transform="scale(0.1)"
       id="g12"><path
         id="path22"
         style="fill:#ff4081;fill-opacity:1;fill-rule:evenodd;stroke:none"
         d="m 3129.9251,1866.4757 h -1066.48 c -198.36,0 -359.18,-160.8 -359.18,-359.164 v -346.488 c 0,-198.37498 160.82,-359.17598 359.18,-359.17598 h 276.28 l 253.02,-180.172 253.01,180.172 h 284.17 c 198.36,0 359.17,160.801 359.17,359.17598 v 346.488 c 0,198.364 -160.81,359.164 -359.17,359.164"
         inkscape:connector-curvature="0" /><path
         id="path24"
         style="fill:#ffffff;fill-opacity:1;fill-rule:nonzero;stroke:none"
         d="m 1948.9851,1064.8427 v 304.379 c 0,71.578 18.79,128.113 56.36,169.637 37.58,41.504 88.22,62.265 151.91,62.265 32.58,0 62.64,-6.898 90.19,-20.668 27.57,-13.777 51.36,-33.906 71.4,-60.39 20.75,26.851 44.73,47.055 71.94,60.664 27.19,13.59 57.08,20.394 89.65,20.394 62.99,0 113.35,-20.839 151.11,-62.539 37.74,-41.691 56.65,-98.152 56.65,-169.363 v -304.379 h -93.42 v 322.094 c 0,36.84 -10.56,66.562 -31.67,89.117 -21.12,22.539 -48.69,33.813 -82.67,33.813 -34.01,0 -61.56,-11.274 -82.68,-33.813 -21.11,-22.555 -31.66,-52.277 -31.66,-89.117 v -322.094 h -93.41 v 322.094 c 0,36.84 -10.74,66.562 -32.21,89.117 -21.48,22.539 -49.22,33.813 -83.22,33.813 -34.35,0 -62,-11.274 -82.93,-33.813 -20.94,-22.555 -31.4,-52.277 -31.4,-89.117 v -322.094 h -93.94"
         inkscape:connector-curvature="0" /><path
         id="path26"
         style="fill:#ffffff;fill-opacity:1;fill-rule:nonzero;stroke:none"
         d="m 3244.4051,1297.8197 c -13.25,-75.16 -43.68,-134.571 -91.26,-178.215 -47.6,-43.68 -105.59,-65.5 -173.93,-65.5 -23.27,0 -46.27,3.141 -68.98,9.402 -22.74,6.246 -44.14,15.465 -64.15,27.645 -42.26,25.754 -74.99,59.394 -98.26,100.918 -23.26,41.504 -34.89,87.148 -34.89,136.883 0,36.507 6.73,71.211 20.13,104.152 13.42,32.922 32.83,62.617 58.25,89.101 25.4,26.122 54.29,45.997 86.69,59.606 32.39,13.586 66.47,20.394 102.27,20.394 53.33,0 101.03,-14.054 143.07,-42.144 42.04,-28.102 76.14,-68.977 102.26,-122.676 l -345.17,-191.094 -39.73,71.387 256.07,142.801 c -15.76,17.527 -33.48,30.769 -53.14,39.726 -19.68,8.934 -41.16,13.418 -64.42,13.418 -47.25,0 -87.06,-17.621 -119.45,-52.875 -32.38,-35.257 -48.58,-78.824 -48.58,-130.718 0,-51.528 16.28,-95.012 48.84,-130.45 32.57,-35.429 72.3,-53.144 119.19,-53.144 44.74,0 82.2,14.766 112.47,44.297 30.22,29.519 49.1,70.055 56.62,121.582 l 96.1,-14.496"
         inkscape:connector-curvature="0" /><text
         xml:space="preserve"
         style="font-style:normal;font-weight:normal;font-size:300px;line-height:1.25;font-family:sans-serif;letter-spacing:0px;word-spacing:0px;fill:#000000;fill-opacity:1;stroke:none;stroke-width:7.5"
         x="90.783081"
         y="-1044.608"
         id="text831"
         transform="scale(1,-1)"><tspan
           sodipodi:role="line"
           id="tspan829"
           x="90.783081"
           y="-1044.608"
           style="font-style:normal;font-variant:normal;font-weight:normal;font-stretch:normal;font-size:1060px;font-family:Lato;-inkscape-font-specification:Lato;stroke-width:7.5">Vid</tspan></text>
<text
         xml:space="preserve"
         style="font-style:normal;font-weight:normal;font-size:300px;line-height:1.25;font-family:sans-serif;letter-spacing:0px;word-spacing:0px;fill:#000000;fill-opacity:1;stroke:none;stroke-width:7.5"
         x="78.245956"
         y="-212.34924"
         id="text820"
         transform="scale(1,-1)"><tspan
           sodipodi:role="line"
           id="tspan818"
           x="78.245956"
           y="-212.34924"
           style="font-style:normal;font-variant:normal;font-weight:normal;font-stretch:normal;font-size:290px;font-family:'Lato Light';-inkscape-font-specification:'Lato Light, ';fill:#999999;stroke-width:7.5">Next Generation Video App</tspan></text>
</g></g></svg>